<?xml version="1.0" encoding="UTF-8" standalone="no"?>
<!-- Created with Inkscape (http://www.inkscape.org/) -->

<svg
   version="1.1"
   id="svg2"
   width="1889.76"
   height="1511.8134"
   viewBox="0 0 1889.76 1511.8134"
   sodipodi:docname="logoLimex2.ai"
   xmlns:inkscape="http://www.inkscape.org/namespaces/inkscape"
   xmlns:sodipodi="http://sodipodi.sourceforge.net/DTD/sodipodi-0.dtd"
   xmlns="http://www.w3.org/2000/svg"
   xmlns:svg="http://www.w3.org/2000/svg">
  <defs
     id="defs6">
    <clipPath
       clipPathUnits="userSpaceOnUse"
       id="clipPath16">
      <path
         d="M 0,1133.858 H 1417.323 V 0 H 0 Z"
         id="path14" />
    </clipPath>
    <clipPath
       clipPathUnits="userSpaceOnUse"
       id="clipPath24">
      <path
         d="M 18.5561,1271.43 H 1427.56 V -137.575 H 18.5561 Z"
         id="path22" />
    </clipPath>
  </defs>
  <sodipodi:namedview
     id="namedview4"
     pagecolor="#ffffff"
     bordercolor="#000000"
     borderopacity="0.25"
     inkscape:showpageshadow="2"
     inkscape:pageopacity="0.0"
     inkscape:pagecheckerboard="0"
     inkscape:deskcolor="#d1d1d1" />
  <g
     id="g8"
     inkscape:groupmode="layer"
     inkscape:label="logoLimex2"
     transform="matrix(1.3333333,0,0,-1.3333333,0,1511.8133)">
    <g
       id="g10">
      <g
         id="g12"
         clip-path="url(#clipPath16)">
        <g
           id="g18">
          <g
             id="g20" />
          <g
             id="g274">
            <g
               clip-path="url(#clipPath24)"
               id="g272">
              <path
                 d="M 1427.563,-137.574 H 18.556 v 1409.007 h 1409.007 z"
                 style="fill:#fbfbfa;fill-opacity:1;fill-rule:nonzero;stroke:none"
                 id="path26" />
              <g
                 transform="translate(1101.9219,570.1254)"
                 id="g30">
                <path
                   d="m 0,0 c 0,-24.325 0.062,-48.65 -0.013,-72.975 -0.157,-51.192 -0.406,-102.385 -0.53,-153.577 -0.007,-2.719 -0.739,-4.428 -3.226,-5.679 -4.104,-2.065 -8.058,-4.429 -12.079,-6.661 -88.341,-49.042 -176.682,-98.086 -265.026,-147.125 -32.038,-17.783 -64.083,-35.555 -96.125,-53.33 -0.277,-0.153 -0.605,-0.236 -0.847,-0.43 -2.774,-2.228 -5.356,-1.651 -8.297,-0.004 -23.385,13.105 -46.835,26.095 -70.274,39.104 -59.775,33.174 -119.559,66.331 -179.332,99.51 -41.049,22.787 -82.081,45.607 -123.136,68.386 -4.441,2.464 -4.25,2.167 -4.269,7.371 -0.199,53.577 -0.446,107.153 -0.638,160.729 -0.099,27.505 -0.104,55.011 -0.173,82.515 -0.072,28.458 -0.156,56.917 -0.262,85.375 -0.141,37.838 -0.306,75.675 -0.475,113.513 -0.01,2.391 0.085,4.73 0.84,7.05 0.518,1.591 1.305,2.764 2.668,3.77 4.493,3.315 9.342,5.986 14.384,8.335 12.964,6.041 26.502,10.456 40.248,14.312 22.743,6.379 45.707,11.799 68.876,16.399 13.689,2.719 27.408,5.239 41.166,7.572 13.916,2.359 27.795,4.929 41.717,7.249 12.829,2.138 25.689,4.094 38.544,6.076 9.88,1.524 19.759,3.057 29.663,4.408 6.604,0.901 13.25,1.503 19.879,2.218 7.737,0.836 15.468,1.723 23.215,2.45 5.377,0.504 10.772,0.958 16.169,1.113 13.187,0.377 26.375,0.814 39.574,0.588 4.605,-0.08 9.215,0.306 13.823,0.301 7.152,-0.008 14.304,-0.137 21.455,-0.274 12.713,-0.243 25.431,-0.466 38.107,-1.54 7.752,-0.657 15.478,-1.604 23.214,-2.441 6.63,-0.719 13.263,-1.412 19.881,-2.218 5.671,-0.692 11.331,-1.482 16.984,-2.311 7.377,-1.082 14.748,-2.215 22.112,-3.381 8.774,-1.389 17.542,-2.806 26.304,-4.264 8.29,-1.38 16.567,-2.842 24.853,-4.242 8.291,-1.4 16.598,-2.699 24.877,-4.168 9.679,-1.719 19.339,-3.547 29,-5.376 18.375,-3.48 36.65,-7.422 54.781,-12.02 14.128,-3.583 28.218,-7.302 42.037,-11.956 9.168,-3.088 18.145,-6.674 26.691,-11.239 5.582,-2.982 4.701,-2.068 4.678,-8.037 C 0.965,204.915 0.687,184.734 0.619,164.553 0.437,109.702 0.321,54.851 0.179,0 Z"
                   style="fill:#000000;fill-opacity:1;fill-rule:nonzero;stroke:none"
                   id="path28" />
              </g>
              <g
                 transform="translate(1087.7285,571.7513)"
                 id="g34">
                <path
                   d="m 0,0 c 0,-41.179 0.021,-82.358 -0.01,-123.537 -0.014,-19.555 -0.109,-39.111 -0.204,-58.667 -0.057,-11.921 -0.182,-23.843 -0.275,-35.766 -0.003,-0.318 -0.016,-0.639 0.022,-0.953 0.267,-2.224 -0.832,-3.605 -2.734,-4.519 -0.571,-0.275 -1.114,-0.611 -1.67,-0.919 -60.395,-33.517 -120.789,-67.033 -181.183,-100.554 -58.725,-32.594 -117.448,-65.197 -176.175,-97.789 -5.293,-2.936 -4.885,-3.405 -11.22,0.117 -53.708,29.859 -107.462,59.634 -161.191,89.456 -65.251,36.218 -130.493,72.453 -195.73,108.697 -4.69,2.605 -4.733,2.095 -4.744,8.128 -0.12,68.526 -0.281,137.052 -0.44,205.577 -0.028,12.083 -0.106,24.166 -0.149,36.249 -0.217,61.209 -0.431,122.419 -0.645,183.629 -0.004,0.954 -0.029,1.909 0.01,2.861 0.145,3.52 1.371,6.328 4.548,8.331 4.175,2.631 8.414,5.101 12.893,7.169 12.136,5.602 24.779,9.78 37.622,13.394 24.443,6.878 49.162,12.567 74.095,17.374 16.049,3.094 32.15,5.871 48.263,8.591 16.113,2.719 32.203,5.579 48.334,8.185 11.592,1.872 23.226,3.487 34.857,5.103 9.119,1.267 18.249,2.481 27.399,3.496 8.206,0.912 16.441,1.569 24.671,2.254 17.121,1.426 34.277,1.777 51.451,1.632 9.537,-0.081 19.078,0.142 28.614,-0.009 10.806,-0.171 21.62,-0.389 32.408,-0.994 8.555,-0.48 17.079,-1.55 25.611,-2.404 6.952,-0.695 13.909,-1.364 20.843,-2.216 7.876,-0.969 15.737,-2.073 23.59,-3.219 7.222,-1.053 14.428,-2.223 21.636,-3.37 8.775,-1.395 17.552,-2.782 26.316,-4.244 8.292,-1.383 16.569,-2.865 24.854,-4.292 11.727,-2.02 23.477,-3.914 35.178,-6.072 16.536,-3.05 33.024,-6.364 49.388,-10.243 19.6,-4.647 39.145,-9.517 58.186,-16.177 6.894,-2.411 13.625,-5.235 20.163,-8.503 1.278,-0.638 2.49,-1.423 3.803,-1.974 2.242,-0.94 3.022,-2.594 2.748,-4.905 -0.056,-0.47 10e-4,-0.953 -0.001,-1.43 C 1.004,182.353 0.9,147.217 0.74,112.083 0.57,74.722 0.347,37.361 0.146,0 0.098,0 0.049,0 0,0"
                   style="fill:#7089b2;fill-opacity:1;fill-rule:nonzero;stroke:none"
                   id="path32" />
              </g>
              <g
                 transform="translate(1083.0889,763.6415)"
                 id="g38">
                <path
                   d="m 0,0 c 0,-6.678 0.014,-13.356 -0.006,-20.035 -0.009,-2.85 0.123,-5.687 -0.644,-8.518 -0.404,-1.489 -0.168,-3.159 -0.169,-4.748 -0.048,-93.656 -0.09,-187.311 -0.14,-280.968 -0.002,-2.691 0.1,-5.368 -0.631,-8.043 -0.405,-1.488 -0.181,-3.158 -0.182,-4.746 -0.02,-26.077 -0.115,-52.155 0.056,-78.231 0.025,-3.679 -0.95,-5.874 -4.275,-7.446 -3.575,-1.691 -6.908,-3.888 -10.382,-5.802 -7.228,-3.984 -14.504,-7.882 -21.714,-11.898 -9.841,-5.48 -19.618,-11.075 -29.462,-16.55 -7.49,-4.166 -15.06,-8.189 -22.561,-12.336 -7.22,-3.991 -14.393,-8.067 -21.593,-12.094 -3.324,-1.859 -6.659,-3.698 -9.996,-5.534 -10.151,-5.585 -20.313,-11.15 -30.454,-16.75 -8.614,-4.756 -17.204,-9.55 -25.805,-14.326 -8.601,-4.777 -17.202,-9.552 -25.803,-14.329 -8.599,-4.778 -17.2,-9.555 -25.799,-14.334 -8.461,-4.702 -16.932,-9.383 -25.377,-14.113 -9.69,-5.427 -19.337,-10.928 -29.038,-16.335 -7.07,-3.94 -14.214,-7.746 -21.293,-11.674 -7.074,-3.924 -14.107,-7.925 -21.157,-11.896 -3.733,-2.104 -7.599,-3.947 -11.304,-6.126 -6.563,-3.861 -13.319,-7.396 -19.999,-11.06 -0.834,-0.459 -1.744,-0.799 -2.534,-1.324 -2.316,-1.538 -4.44,-1.051 -6.669,0.291 -3.802,2.291 -7.663,4.491 -11.549,6.641 -10.138,5.608 -20.312,11.152 -30.454,16.752 -8.474,4.678 -16.936,9.377 -25.381,14.106 -9.689,5.427 -19.335,10.931 -29.035,16.337 -7.07,3.941 -14.216,7.746 -21.297,11.666 -7.774,4.303 -15.506,8.68 -23.27,13.001 -6.378,3.551 -12.782,7.055 -19.164,10.601 -7.904,4.392 -15.792,8.816 -23.697,13.208 -3.746,2.081 -7.53,4.093 -11.275,6.176 -7.626,4.243 -15.235,8.516 -22.856,12.768 -3.325,1.856 -6.659,3.696 -9.996,5.533 -10.151,5.585 -20.315,11.147 -30.455,16.752 -11.527,6.371 -23.036,12.777 -34.55,19.172 -8.461,4.7 -16.927,9.393 -25.374,14.119 -9.83,5.5 -19.642,11.031 -29.46,16.554 -2.489,1.399 -5.143,2.48 -7.515,4.124 -1.335,0.924 -1.752,1.994 -1.876,3.548 -1.241,15.539 -0.782,31.105 -0.796,46.66 -0.073,82.844 -0.089,165.687 -0.132,248.53 -0.002,2.375 0.119,4.74 -0.612,7.09 -0.365,1.171 -0.2,2.522 -0.201,3.791 -0.025,39.752 -0.042,79.504 -0.056,119.256 -0.002,5.727 -0.39,4.415 4.391,7.391 6.466,4.023 13.487,7.034 20.592,9.798 10.21,3.971 20.724,6.937 31.275,9.85 11.15,3.078 22.349,5.935 33.618,8.516 10.172,2.329 20.393,4.457 30.619,6.544 9.447,1.928 18.913,3.776 28.402,5.485 8.244,1.484 16.538,2.688 24.798,4.084 6.543,1.106 13.061,2.354 19.603,3.469 4.675,0.796 9.372,1.46 14.054,2.211 4.527,0.724 9.046,1.488 13.57,2.228 5.145,0.84 10.289,1.691 15.438,2.505 5.773,0.912 11.545,1.829 17.329,2.663 3.286,0.473 6.598,0.761 9.893,1.177 4.388,0.554 8.763,1.203 13.155,1.71 3.142,0.362 6.295,0.518 9.444,0.95 3.115,0.428 6.276,0.759 9.421,1.067 3.146,0.309 6.363,-0.122 9.436,0.951 5.573,-0.334 11.048,0.976 16.596,1.006 10.652,0.059 21.305,0.061 31.958,0.086 1.903,0.005 3.796,-0.08 5.658,0.572 0.872,0.304 1.878,0.301 2.825,0.304 5.723,0.018 11.507,0.527 17.158,-0.122 11.262,-1.292 22.53,-0.419 33.785,-0.832 1.742,-0.064 3.5,0.09 5.186,-0.547 0.439,-0.165 0.931,-0.285 1.395,-0.275 4.929,0.114 9.801,-0.48 14.688,-1.01 5.339,-0.579 10.699,-0.937 16.023,-1.72 3.279,-0.482 6.621,-0.797 9.904,-1.007 6.024,-0.387 11.905,-1.66 17.891,-2.23 5.492,-0.523 10.913,-1.756 16.382,-2.564 5.316,-0.786 10.671,-1.323 15.976,-2.167 6.553,-1.042 13.067,-2.324 19.609,-3.436 4.675,-0.794 9.374,-1.45 14.053,-2.222 4.211,-0.694 8.411,-1.457 12.616,-2.2 4.667,-0.826 9.327,-1.693 14,-2.49 4.363,-0.745 8.749,-1.365 13.106,-2.141 6.535,-1.163 13.068,-2.343 19.576,-3.646 10.078,-2.017 20.116,-4.24 30.205,-6.2 12.755,-2.476 25.279,-5.9 37.862,-9.077 5.679,-1.434 11.303,-3.104 16.917,-4.788 6.375,-1.914 12.754,-3.81 18.945,-6.305 5.449,-2.197 10.843,-4.497 16.106,-7.113 1.778,-0.883 2.557,-2.034 2.533,-4.084 C -0.039,15.902 0.019,7.951 0.019,0 Z"
                   style="fill:#49639a;fill-opacity:1;fill-rule:nonzero;stroke:none"
                   id="path36" />
              </g>
              <g
                 transform="translate(1075.5166,671.7303)"
                 id="g42">
                <path
                   d="m 0,0 c 0,-33.393 0.004,-66.786 -0.009,-100.178 -0.001,-2.687 0.116,-5.352 -0.697,-8.026 -0.489,-1.612 -0.223,-3.469 -0.224,-5.215 -0.011,-64.241 -0.015,-128.482 -0.02,-192.724 0,-1.113 -0.111,-2.239 0.021,-3.336 0.379,-3.163 -1.279,-5.088 -3.783,-6.551 -0.274,-0.16 -0.567,-0.287 -0.849,-0.437 -5.328,-2.823 -10.69,-5.585 -15.976,-8.486 -8.339,-4.578 -16.612,-9.276 -24.944,-13.867 -3.612,-1.991 -7.343,-3.738 -10.9,-5.858 -4.902,-2.921 -10.071,-5.39 -15.084,-8.13 -5.287,-2.887 -10.508,-5.896 -15.792,-8.789 -3.756,-2.057 -7.61,-3.916 -11.316,-6.087 -5.199,-3.045 -10.647,-5.665 -15.938,-8.556 -5.008,-2.737 -9.928,-5.631 -14.931,-8.377 -3.615,-1.985 -7.341,-3.742 -10.899,-5.861 -4.904,-2.918 -10.071,-5.391 -15.084,-8.128 -5.287,-2.888 -10.509,-5.896 -15.793,-8.79 -3.756,-2.057 -7.61,-3.916 -11.316,-6.086 -5.199,-3.046 -10.647,-5.665 -15.939,-8.557 -5.007,-2.736 -9.928,-5.63 -14.93,-8.377 -3.615,-1.985 -7.34,-3.744 -10.899,-5.861 -4.904,-2.917 -10.071,-5.39 -15.085,-8.128 -5.287,-2.888 -10.494,-5.923 -15.796,-8.782 -4.048,-2.185 -8.144,-4.274 -12.15,-6.549 -5.793,-3.291 -11.807,-6.193 -17.655,-9.389 -8.348,-4.562 -16.615,-9.271 -24.949,-13.856 -4.866,-2.676 -9.82,-5.192 -14.695,-7.852 -5.429,-2.961 -10.802,-6.021 -16.219,-9.005 -3.89,-2.141 -8.017,-3.845 -11.712,-6.353 -1.16,-0.788 -2.369,-0.722 -3.597,-0.036 -1.938,1.083 -3.912,2.102 -5.86,3.167 -0.694,0.38 -1.338,0.852 -2.037,1.224 -5.463,2.909 -10.967,5.742 -16.394,8.718 -8.341,4.573 -16.612,9.274 -24.949,13.855 -5.146,2.826 -10.382,5.491 -15.537,8.301 -5.149,2.808 -10.24,5.722 -15.372,8.563 -3.747,2.074 -7.62,3.894 -11.315,6.091 -5.042,2.998 -10.351,5.542 -15.504,8.357 -5.147,2.812 -10.219,5.763 -15.369,8.568 -3.76,2.05 -7.597,3.945 -11.318,6.085 -5.775,3.321 -11.784,6.233 -17.64,9.417 -4.315,2.347 -8.529,4.88 -12.816,7.278 -3.738,2.091 -7.619,3.897 -11.314,6.095 -5.041,2.998 -10.351,5.541 -15.504,8.357 -5.147,2.811 -10.217,5.763 -15.369,8.568 -3.76,2.048 -7.609,3.918 -11.316,6.087 -5.063,2.964 -10.356,5.533 -15.509,8.348 -9.186,5.015 -18.327,10.112 -27.513,15.125 -3.76,2.051 -7.611,3.918 -11.319,6.084 -5.203,3.039 -10.648,5.661 -15.94,8.552 -5.007,2.737 -9.927,5.633 -14.93,8.378 -3.616,1.984 -7.334,3.758 -10.898,5.863 -5.051,2.982 -10.353,5.538 -15.506,8.351 -5.148,2.812 -10.233,5.737 -15.368,8.571 -1.947,1.075 -3.945,2.062 -5.947,3.032 -1.459,0.706 -2.119,1.823 -2.086,3.42 0.026,1.271 -0.004,2.543 -0.004,3.816 -0.003,39.752 -0.003,79.504 -0.016,119.256 -0.001,2.371 0.057,4.712 -0.664,7.075 -0.492,1.613 -0.254,3.466 -0.254,5.212 -0.014,70.124 -0.019,140.249 -0.024,210.373 -0.002,20.354 -0.003,40.708 -0.004,61.061 0,1.114 0.069,2.231 -0.01,3.339 -0.202,2.827 1.021,4.743 3.331,6.356 5.249,3.665 11.018,6.353 16.795,8.95 5.336,2.399 10.869,4.439 16.46,6.174 8.915,2.767 17.942,5.177 26.937,7.682 4.115,1.146 8.245,2.245 12.403,3.218 12.612,2.951 25.199,6.015 37.946,8.364 7.45,1.373 14.846,3.04 22.293,4.429 4.652,0.868 9.36,1.429 14.032,2.198 4.205,0.692 8.391,1.497 12.591,2.223 4.973,0.86 9.95,1.701 14.929,2.527 4.515,0.749 9.043,1.42 13.55,2.214 3.574,0.629 7.132,1.277 10.749,1.692 4.538,0.522 9.021,1.517 13.537,2.257 3.268,0.536 6.549,0.988 9.824,1.479 4.838,0.725 9.739,1.18 14.49,2.281 2.795,0.648 5.632,0.529 8.432,1.269 3.32,0.877 6.957,0.515 10.313,1.302 4.507,1.056 9.11,0.874 13.644,1.513 4.027,0.567 8.118,1.352 12.25,1.266 1.272,-0.026 2.535,0.012 3.756,0.493 0.581,0.229 1.24,0.427 1.848,0.389 6.046,-0.379 11.948,1.557 18.011,1.059 2.197,-0.18 4.411,-0.12 6.593,0.648 1.148,0.405 2.514,0.25 3.781,0.25 27.507,0.011 55.015,0.009 82.522,0.005 0.953,0 1.982,0.185 2.847,-0.104 3.569,-1.195 7.234,-0.75 10.869,-0.839 1.901,-0.046 3.811,0.121 5.641,-0.653 0.564,-0.237 1.259,-0.326 1.871,-0.261 4.479,0.477 8.796,-1.065 13.238,-1.012 4.702,-1.777 9.844,-0.068 14.549,-1.83 3.842,0.394 7.493,-1.066 11.323,-1.131 3.12,-0.053 6.242,-0.848 9.334,-1.457 2.638,-0.52 5.323,-0.653 7.975,-1.091 4.04,-0.667 8.094,-1.552 12.147,-1.877 5.223,-0.421 10.306,-1.551 15.472,-2.209 4.688,-0.598 9.323,-1.615 13.987,-2.418 4.51,-0.776 9.022,-1.541 13.541,-2.26 4.677,-0.745 9.373,-1.369 14.041,-2.159 4.664,-0.789 9.297,-1.769 13.959,-2.572 4.354,-0.751 8.739,-1.326 13.094,-2.076 4.974,-0.857 9.936,-1.794 14.893,-2.744 7.135,-1.367 14.283,-2.67 21.385,-4.194 14.373,-3.084 28.725,-6.273 42.93,-10.082 10.86,-2.912 21.754,-5.727 32.318,-9.613 5.499,-2.023 10.903,-4.304 16.335,-6.507 1.176,-0.476 2.27,-1.148 3.425,-1.676 3.334,-1.523 5.484,-3.728 4.594,-7.747 L 0.019,0 Z"
                   style="fill:#5872a3;fill-opacity:1;fill-rule:nonzero;stroke:none"
                   id="path40" />
              </g>
              <g
                 transform="translate(1069.7783,679.7333)"
                 id="g46">
                <path
                   d="m 0,0 c 0,-30.05 0.003,-60.101 -0.007,-90.151 -0.001,-2.213 0.032,-4.398 -0.596,-6.608 -0.463,-1.633 -0.293,-3.464 -0.293,-5.207 -0.022,-52.628 -0.03,-105.256 -0.04,-157.883 -0.002,-17.49 -0.005,-34.979 -0.009,-52.468 0,-1.273 -0.017,-2.544 -0.011,-3.817 0.008,-1.387 -0.534,-2.42 -1.78,-3.123 -1.104,-0.622 -2.101,-1.434 -3.213,-2.036 -5.165,-2.793 -10.375,-5.503 -15.529,-8.319 -5.147,-2.813 -10.241,-5.724 -15.368,-8.574 -1.11,-0.617 -2.261,-1.161 -3.397,-1.732 -6.663,-3.353 -13.158,-7.01 -19.626,-10.722 -3.574,-2.052 -7.324,-3.775 -10.889,-5.878 -5.054,-2.979 -10.352,-5.541 -15.507,-8.354 -5.148,-2.811 -10.226,-5.75 -15.374,-8.563 -3.758,-2.052 -7.606,-3.925 -11.317,-6.087 -5.206,-3.035 -10.65,-5.659 -15.938,-8.559 -8.48,-4.651 -16.901,-9.413 -25.376,-14.075 -3.613,-1.988 -7.339,-3.746 -10.9,-5.86 -4.908,-2.912 -10.069,-5.395 -15.083,-8.133 -5.288,-2.888 -10.514,-5.89 -15.798,-8.784 -3.757,-2.056 -7.608,-3.923 -11.317,-6.089 -5.204,-3.039 -10.649,-5.663 -15.936,-8.562 -8.481,-4.651 -16.89,-9.435 -25.385,-14.06 -3.902,-2.124 -7.871,-4.114 -11.732,-6.325 -5.23,-2.995 -10.662,-5.636 -15.949,-8.537 -8.341,-4.575 -16.607,-9.289 -24.959,-13.845 -3.9,-2.127 -7.872,-4.109 -11.731,-6.326 -5.225,-3.004 -10.655,-5.649 -15.947,-8.54 -4.73,-2.584 -9.417,-5.248 -14.078,-7.955 -6.057,-3.517 -6.082,-3.636 -12.537,-0.245 -5.051,2.653 -9.963,5.57 -14.958,8.332 -4.026,2.227 -8.071,4.42 -12.131,6.584 -5.883,3.135 -11.825,6.161 -17.674,9.357 -8.349,4.562 -16.62,9.266 -24.958,13.849 -3.614,1.986 -7.342,3.744 -10.895,5.869 -4.49,2.685 -9.213,4.977 -13.805,7.492 -9.181,5.027 -18.322,10.126 -27.519,15.122 -3.904,2.12 -7.876,4.103 -11.733,6.323 -5.224,3.006 -10.662,5.638 -15.948,8.539 -8.341,4.577 -16.617,9.271 -24.953,13.859 -3.613,1.988 -7.333,3.76 -10.898,5.862 -5.054,2.98 -10.352,5.542 -15.506,8.356 -5.148,2.811 -10.226,5.752 -15.375,8.562 -3.759,2.052 -7.606,3.929 -11.317,6.088 -5.208,3.032 -10.649,5.661 -15.937,8.56 -8.48,4.652 -16.902,9.412 -25.377,14.074 -3.613,1.988 -7.341,3.745 -10.9,5.86 -4.907,2.915 -10.07,5.395 -15.084,8.133 -5.287,2.888 -10.52,5.878 -15.794,8.79 -3.888,2.148 -7.796,4.262 -11.712,6.358 -5.318,2.844 -10.654,5.654 -15.978,8.488 -0.84,0.447 -1.701,0.876 -2.471,1.427 -1.076,0.769 -1.772,1.808 -1.77,3.207 0.002,1.271 -0.014,2.544 -0.014,3.815 -0.009,45.156 -0.015,90.31 -0.034,135.465 -10e-4,2.529 0.17,5.055 -0.681,7.551 -0.393,1.153 -0.209,2.518 -0.209,3.787 -0.022,84.268 -0.012,168.536 -0.139,252.804 -0.005,3.399 1.267,5.154 3.954,6.778 7.24,4.376 15.038,7.473 22.942,10.317 15.521,5.588 31.53,9.479 47.506,13.487 13.955,3.501 28.02,6.541 42.138,9.238 8.051,1.539 16.088,3.268 24.258,4.284 6.251,0.777 12.396,2.382 18.617,3.444 6.691,1.143 13.426,2.03 20.125,3.127 4.671,0.766 9.286,1.94 13.977,2.488 4.874,0.568 9.673,1.515 14.516,2.222 2.657,0.388 5.316,0.767 7.966,1.194 3.27,0.527 6.527,1.129 9.798,1.645 5.921,0.933 11.841,1.881 17.777,2.716 3.44,0.484 6.969,0.476 10.348,1.205 4.042,0.871 8.22,0.413 12.206,1.586 0.892,0.262 1.89,0.203 2.84,0.224 1.903,0.043 3.792,-0.012 5.644,0.677 0.858,0.319 1.878,0.246 2.826,0.273 2.374,0.069 4.734,-0.051 7.069,0.747 1.153,0.394 2.517,0.189 3.786,0.219 1.745,0.041 3.499,-0.083 5.171,0.618 0.428,0.18 0.932,0.29 1.393,0.268 6.2,-0.299 12.324,0.846 18.491,0.97 8.899,0.178 17.805,0.046 26.708,0.071 2.847,0.008 5.648,0.152 8.502,0.668 3.239,0.586 6.649,0.266 9.985,0.257 2.687,-0.007 5.375,0.196 8.024,-0.718 1.149,-0.396 2.518,-0.198 3.787,-0.202 6.678,-0.021 13.355,0.007 20.032,-0.039 3.319,-0.023 6.618,0.111 9.933,-0.727 2.099,-0.531 4.426,-0.155 6.649,-0.211 2.37,-0.059 4.777,0.257 7.061,-0.731 0.419,-0.18 0.946,-0.211 1.41,-0.168 4.79,0.442 9.497,-0.625 14.174,-1.195 4.055,-0.494 8.244,-0.203 12.207,-1.516 0.587,-0.194 1.258,-0.141 1.891,-0.182 7.097,-0.462 14.12,-1.47 21.124,-2.69 3.263,-0.568 6.595,-0.73 9.88,-1.18 4.693,-0.644 9.377,-1.356 14.056,-2.091 5.454,-0.856 10.901,-1.756 16.348,-2.66 4.67,-0.775 9.336,-1.582 14.004,-2.374 4.668,-0.791 9.334,-1.603 14.007,-2.364 4.675,-0.762 9.363,-1.447 14.036,-2.211 5.139,-0.839 10.273,-1.707 15.402,-2.606 5.6,-0.981 11.201,-1.965 16.785,-3.037 5.892,-1.129 11.766,-2.353 17.643,-3.556 7.893,-1.617 15.812,-3.124 23.666,-4.915 8.942,-2.04 17.837,-4.292 26.729,-6.549 5.214,-1.323 10.403,-2.757 15.563,-4.28 7.292,-2.153 14.629,-4.195 21.638,-7.206 3.641,-1.564 7.314,-3.062 10.894,-4.756 3.93,-1.86 3.893,-1.943 3.936,-6.073 0.011,-0.954 0.002,-1.908 0.002,-2.862 L 0.032,0 Z"
                   style="fill:#7089b2;fill-opacity:1;fill-rule:nonzero;stroke:none"
                   id="path44" />
              </g>
              <g
                 transform="translate(718.5791,396.9266)"
                 id="g50">
                <path
                   d="m 0,0 c -9.973,-6.564 -20.352,-12.38 -31.388,-16.975 -13.53,-5.633 -27.447,-9.914 -41.99,-12.035 -6.602,-0.964 -13.217,-1.717 -19.892,-1.91 -1.267,-0.037 -2.535,-0.167 -3.793,-0.332 -4.437,-0.582 -8.87,-0.533 -13.308,-0.02 -1.418,0.164 -2.841,0.323 -4.267,0.379 -16.446,0.645 -32.443,3.658 -48.034,8.929 -20.207,6.833 -38.794,16.707 -55.46,30.005 -16.39,13.077 -30.387,28.352 -41.479,46.256 -10.725,17.311 -18.479,35.804 -22.94,55.664 -1.809,8.053 -3.066,16.183 -3.774,24.433 -0.545,6.352 -0.789,12.684 -0.644,19.033 0.336,14.657 2.446,29.065 6.282,43.23 4.9,18.092 12.543,34.956 22.694,50.669 10.693,16.553 23.903,30.869 39.263,43.202 14.103,11.323 29.631,20.233 46.396,26.948 12.109,4.85 24.61,8.4 37.503,10.551 13.361,2.23 26.806,2.99 40.329,2.696 2.687,-1.283 5.179,0.666 7.816,0.475 1.893,-0.137 3.738,-0.369 5.488,-1.125 17.307,-6.229 34.829,-11.857 52.011,-18.455 8.734,-3.354 17.27,-7.213 26.147,-10.191 3.209,-1.012 5.799,-3.06 8.426,-5.049 10.588,-7.868 20.605,-16.369 29.147,-26.49 0.987,-1.168 2.498,-2.094 2.056,-4.007 4.692,-5.358 8.946,-11.048 12.839,-17.009 0.691,-1.06 1.432,-2.107 1.964,-3.247 0.953,-2.049 0.409,-3.688 -1.478,-4.866 -0.535,-0.335 -1.114,-0.6 -1.678,-0.89 -10.841,-5.577 -21.674,-11.173 -32.53,-16.722 -4.863,-2.485 -4.836,-2.406 -8.021,1.96 -2.692,3.69 -5.515,7.283 -8.28,10.918 -1.995,-0.235 -2.644,1.509 -3.67,2.597 -10.414,11.043 -21.984,20.59 -35.525,27.61 -13.781,6.743 -27.995,12.129 -43.313,14.183 -40.222,5.392 -75.973,-4.685 -106.769,-31.255 -24.369,-21.025 -38.48,-47.814 -43.011,-79.576 -3.504,-24.551 0.044,-48.208 10.735,-70.604 19.111,-40.033 50.648,-64.599 94.004,-73.339 28.724,-5.79 56.602,-2.021 83.145,10.68 1.711,0.819 3.395,1.82 5.432,1.319 3.952,-3.389 7.447,-7.257 11.054,-10.995 C -20.681,18.526 -11.995,11.468 -2.831,4.937 -1.283,3.833 1.586,3.073 0,0"
                   style="fill:#ffffff;fill-opacity:1;fill-rule:nonzero;stroke:none"
                   id="path48" />
              </g>
              <g
                 transform="translate(784.5615,812.6781)"
                 id="g54">
                <path
                   d="m 0,0 c 4.11,-0.111 8.234,0.32 12.308,-0.836 1.476,-0.419 3.161,-0.093 4.751,-0.128 2.213,-0.048 4.433,0.141 6.595,-0.688 0.851,-0.327 1.881,-0.22 2.831,-0.248 2.374,-0.069 4.743,0.074 7.067,-0.764 0.999,-0.359 2.202,-0.169 3.312,-0.201 1.9,-0.054 3.813,0.115 5.646,-0.645 0.566,-0.234 1.244,-0.269 1.872,-0.278 5.078,-0.068 10.035,-1.14 15.049,-1.719 3.448,-0.399 6.922,-0.602 10.364,-1.151 4.674,-0.745 9.422,-0.845 14.096,-1.702 3.411,-0.626 6.907,-0.772 10.357,-1.197 4.07,-0.501 8.146,-0.986 12.191,-1.645 2.811,-0.457 5.758,0.178 8.455,-1.1 3.839,0.323 7.493,-1.301 11.326,-1.088 0.968,0.054 1.911,-0.076 2.579,-0.921 -1.896,-1.731 -0.718,-2.954 0.606,-4.293 7.811,-7.897 16.031,-15.386 24.217,-22.863 7.024,-6.416 13.882,-13.031 20.785,-19.551 14.18,-13.393 28.358,-26.803 42.586,-40.142 12.483,-11.704 24.451,-23.986 37.676,-34.894 0.907,-0.748 1.56,-1.571 1.466,-2.825 -0.017,-46.603 -0.002,-93.195 -0.008,-139.787 0,-1.272 0.003,-2.544 -0.006,-3.816 -0.016,-2.354 -1.273,-2.662 -3.139,-1.874 -1.04,0.439 -1.867,1.205 -2.67,1.976 -9.637,9.236 -19.287,18.46 -29.197,27.404 -2.007,1.81 -2.808,4.175 -3.395,6.668 -2.366,8.574 -2.665,17.515 -4.794,26.175 -8.785,35.725 -26.674,66.099 -53.625,90.952 -21.966,20.255 -47.629,34.128 -76.604,41.727 -3.063,0.804 -6.227,1.281 -9.123,2.667 -4.397,3.141 -8.091,7.129 -11.924,10.849 -13.891,13.482 -28.265,26.448 -42.186,39.898 -10.833,10.467 -22.17,20.415 -32.837,31.067 -1.123,1.121 -2.324,2.18 -3.215,3.505 -0.516,0.767 -1.263,1.717 -0.348,2.522 0.722,0.635 1.769,0.522 2.625,-0.099 1.268,-0.005 2.535,-0.009 3.802,-0.014 C -7.097,-0.378 -3.418,1.264 0,0"
                   style="fill:#88a0ca;fill-opacity:1;fill-rule:nonzero;stroke:none"
                   id="path52" />
              </g>
              <g
                 transform="translate(758.0225,432.9247)"
                 id="g58">
                <path
                   d="m 0,0 c 9.282,-5.354 19.293,-8.852 29.627,-11.461 11.619,-2.934 23.471,-4.14 35.424,-3.805 37.414,1.048 69.032,15.215 94.768,42.402 5.477,5.784 10.259,12.135 14.499,18.885 0.591,0.942 1.137,1.925 1.832,2.785 1.139,1.404 2.571,1.702 4.244,0.943 0.864,-0.392 1.685,-0.886 2.499,-1.379 10.731,-6.504 21.467,-13.001 32.184,-19.531 4.937,-3.008 5.241,-4.237 2.126,-9.041 -22.278,-34.34 -52.672,-58.594 -90.932,-73.027 -10.12,-3.818 -20.538,-6.664 -31.185,-8.482 -6.878,-1.175 -13.84,-1.935 -20.835,-2.214 -2.222,-0.088 -4.444,-0.26 -6.654,-0.502 -3.175,-0.348 -6.379,-0.511 -9.521,-0.108 -5.842,0.749 -11.725,0.796 -17.581,1.364 -11.439,1.11 -22.558,3.512 -33.505,6.885 -14.949,4.606 -29.048,11.078 -42.35,19.294 -0.943,0.581 -1.835,1.242 -2.751,1.866 -0.502,1.423 0.648,2.068 1.461,2.653 13.171,9.478 24.621,20.804 35.424,32.833 C -0.751,0.465 -0.34,0.354 0,0"
                   style="fill:#000000;fill-opacity:1;fill-rule:nonzero;stroke:none"
                   id="path56" />
              </g>
              <g
                 transform="translate(679.1758,664.4315)"
                 id="g62">
                <path
                   d="m 0,0 c 14.866,-8.109 27.77,-18.638 38.807,-31.477 0.012,-1.753 -1.206,-2.865 -2.155,-4.104 -4.443,-5.804 -8.489,-11.868 -11.986,-18.29 -6.257,-11.489 -10.796,-23.612 -13.392,-36.448 1.521,-2.621 0.367,-5.319 0.082,-7.931 -1.468,-13.497 -1.402,-26.959 0.532,-40.396 3.445,-19.797 11.164,-37.761 23.121,-53.922 1.381,-1.868 3.269,-3.509 3.404,-6.096 -0.794,-3.622 -3.595,-6.01 -5.978,-8.332 -8.72,-8.497 -18.113,-16.213 -28.835,-22.15 -1.13,-0.625 -2.269,-1.112 -3.599,-0.902 -2.111,0.007 -3.531,1.192 -4.74,2.754 -20.203,26.127 -33.064,55.354 -37.276,88.243 -2.689,15.95 -2.709,31.895 -0.024,47.835 3.271,26.237 12.325,50.388 26.483,72.649 3.398,5.343 6.786,10.713 10.908,15.569 C -3.365,-1.487 -2.025,-0.265 0,0"
                   style="fill:#000000;fill-opacity:1;fill-rule:nonzero;stroke:none"
                   id="path60" />
              </g>
              <g
                 transform="translate(690.2007,524.5936)"
                 id="g66">
                <path
                   d="m 0,0 c -0.268,0.566 -0.702,1.112 -0.78,1.704 -2.12,15.988 -2.383,31.942 1.029,47.814 2.065,0.043 4.131,0.122 6.196,0.12 30.844,-0.031 61.686,-0.073 92.529,-0.112 0.795,-0.001 1.591,0.013 2.385,-0.006 3.621,-0.089 4.749,-1.023 5.272,-4.694 0.426,-2.985 0.807,-5.989 0.956,-8.997 0.468,-9.374 0.642,-18.77 -0.038,-28.128 -0.736,-10.14 -2.382,-20.18 -4.956,-30.03 -5.681,-21.742 -14.864,-41.874 -27.977,-60.164 -2.218,-3.093 -4.53,-6.119 -6.796,-9.177 -0.293,-0.129 -0.602,-0.189 -0.923,-0.182 -1.541,-0.508 -2.751,0.291 -3.982,1.007 -12.092,7.032 -22.86,15.746 -32.521,25.827 -1.713,1.787 -3.599,3.665 -3.145,6.574 0.329,2.689 2.168,4.543 3.669,6.561 9.763,13.135 16.95,27.522 21.193,43.352 0.37,1.381 0.65,2.781 0.987,4.167 0.754,3.102 -0.594,4.035 -3.514,3.718 C 34.869,-2.241 20.102,-1.029 5.362,-1.368 3.481,-1.411 1.507,-1.546 0,0"
                   style="fill:#ffffff;fill-opacity:1;fill-rule:nonzero;stroke:none"
                   id="path64" />
              </g>
              <g
                 transform="translate(611.8623,808.8422)"
                 id="g70">
                <path
                   d="m 0,0 c 4.365,0.559 8.729,1.125 13.094,1.67 0.94,0.118 1.887,0.208 2.833,0.233 2.367,0.063 4.736,-0.119 7.042,0.761 0.845,0.322 1.879,0.175 2.827,0.197 2.996,0.071 5.987,-0.137 8.944,0.788 1.309,0.41 2.83,0.139 4.255,0.178 2.206,0.058 4.375,0.054 6.583,0.627 1.944,0.504 4.086,0.247 6.141,0.328 2.832,0.111 5.677,-0.253 8.473,0.73 1.143,0.402 2.511,0.204 3.776,0.209 5.073,0.018 10.145,0.008 15.218,0.008 C 78.839,3.176 76.744,3.835 75.214,3.675 72.753,3.419 70.23,3.866 67.15,3.232 c 2.243,-3.124 4.67,-5.344 7.115,-7.481 9.068,-7.926 17.634,-16.387 26.375,-24.66 17.831,-16.877 36.033,-33.364 53.489,-50.636 1.625,-1.607 3.891,-2.935 3.69,-5.77 -3.497,-3.239 -8.266,-3.551 -12.423,-5.222 -6.431,-2.587 -12.845,-5.162 -18.981,-8.393 -5.748,-2.733 -11.176,-6.021 -16.492,-9.508 -1.836,-1.205 -3.53,-2.787 -5.966,-2.683 -8.223,3.047 -15.729,7.441 -23.016,12.25 0.385,1.974 -0.706,3.278 -2.015,4.511 -14.175,13.355 -28.197,26.874 -42.617,39.965 -5.981,5.43 -11.627,11.204 -17.582,16.67 -10.96,10.061 -21.53,20.554 -32.562,30.552 -1.37,1.242 -4.119,2.68 -1.427,5.271 0.317,0.007 0.633,0.01 0.949,0.008 1.767,1.183 3.966,-0.278 5.727,0.939 0.952,0.006 1.904,0.011 2.857,0.017 C -3.961,0.241 -1.761,-1.218 0,0"
                   style="fill:#819bc4;fill-opacity:1;fill-rule:nonzero;stroke:none"
                   id="path68" />
              </g>
              <g
                 transform="translate(769.3027,723.8373)"
                 id="g74">
                <path
                   d="m 0,0 c -0.462,1.243 -1.489,2.033 -2.378,2.925 -3.913,3.934 -7.6,8.14 -11.824,11.707 -6.066,5.12 -11.252,11.158 -17.271,16.253 -5.34,4.521 -9.879,9.835 -15.187,14.312 -6.069,5.117 -11.257,11.151 -17.277,16.246 -5.339,4.52 -9.928,9.771 -15.186,14.314 -3.593,3.106 -7.181,6.195 -10.439,9.643 -1.008,1.068 -3.113,1.908 -2.313,3.665 0.629,1.384 2.569,0.647 3.928,0.697 2.375,0.088 4.756,0.031 7.134,0.028 0.972,-0.001 1.904,0.091 2.558,0.944 24.908,-0.002 49.817,0.005 74.725,-0.025 1.525,-0.002 3.216,0.499 4.478,-0.914 -0.765,-0.066 -1.595,0.147 -2.231,-0.499 0.111,-0.301 0.138,-0.669 0.337,-0.869 4.795,-4.846 9.294,-10.051 14.508,-14.398 4.891,-4.078 9.002,-8.913 13.82,-12.997 6.535,-5.541 12.187,-12.009 18.651,-17.565 4.58,-3.935 8.863,-8.128 13.061,-12.415 3.113,-3.179 6.929,-5.502 9.924,-8.813 2.868,-3.172 5.754,-6.432 9.12,-9.021 C 82.061,10.201 85.325,6.613 88.706,3.092 87.245,1.589 85.46,2.096 83.784,2.409 70.809,4.833 57.721,5.673 44.539,5.338 39.157,5.201 33.822,4.51 28.47,4.068 27.691,3.854 26.895,3.737 26.094,3.672 24.605,3.583 23.11,3.634 21.62,3.617 20.49,3.62 19.366,3.546 18.275,3.206 17.44,2.987 16.588,2.873 15.733,2.785 14.918,2.683 14.113,2.518 13.323,2.281 12.739,2.109 12.144,2.004 11.541,1.938 10.568,1.849 9.605,1.698 8.673,1.385 8.121,1.209 7.556,1.093 6.987,1.002 6.249,0.868 5.521,0.691 4.808,0.456 4.274,0.282 3.729,0.173 3.176,0.095 2.45,-0.017 1.733,-0.183 1.011,-0.33 0.625,-0.372 0.288,-0.26 0,0"
                   style="fill:#849ec7;fill-opacity:1;fill-rule:nonzero;stroke:none"
                   id="path72" />
              </g>
              <g
                 transform="translate(809.2412,526.3251)"
                 id="g78">
                <path
                   d="m 0,0 c -1.012,0.243 -1.746,0.815 -1.872,1.882 -0.13,1.099 -0.177,2.214 -0.18,3.322 -0.043,13.025 -0.083,26.05 -0.096,39.075 -0.006,5.303 0.253,5.518 5.708,5.623 36.843,0.71 73.692,0.673 110.54,0.854 1.425,0.007 2.851,-0.112 4.277,-0.173 5.05,-1.264 8.294,-5.173 11.88,-8.431 12.449,-11.309 24.244,-23.279 35.221,-36.039 0.62,-0.72 1.325,-1.375 1.863,-2.161 0.717,-1.046 1.556,-2.147 0.831,-3.471 -0.664,-1.21 -1.962,-0.814 -3.017,-0.814 C 110.561,-0.341 55.966,-0.369 1.371,-0.337 0.878,-0.337 0.442,-0.171 0,0"
                   style="fill:#000000;fill-opacity:1;fill-rule:nonzero;stroke:none"
                   id="path76" />
              </g>
              <g
                 transform="translate(1040.2217,675.2816)"
                 id="g82">
                <path
                   d="m 0,0 c -2.411,0.523 -4.361,1.916 -5.973,3.641 -8.235,8.818 -17.476,16.584 -26.151,24.941 -6.156,5.929 -12.138,12.089 -18.61,17.652 -4.949,4.253 -9.236,9.153 -14.179,13.346 -6.422,5.448 -11.966,11.818 -18.334,17.258 -4.721,4.033 -8.799,8.691 -13.499,12.68 -6.661,5.654 -12.425,12.253 -19.016,17.923 -4.584,3.943 -8.74,8.27 -13.108,12.403 -0.659,0.624 -1.7,1.256 -1.355,2.312 0.47,1.436 1.875,0.732 2.887,0.919 0.154,0.029 0.317,0.008 0.476,0.011 0.632,-0.008 1.262,-0.017 1.893,-0.025 1.436,-1.138 3.344,0.168 4.788,-0.927 0.629,-0.007 1.259,-0.013 1.888,-0.02 1.764,-1.222 3.966,0.237 5.736,-0.939 0.314,0.009 0.628,0.004 0.942,-0.013 1.761,-1.226 3.965,0.236 5.735,-0.941 0.634,-0.01 1.268,-0.018 1.901,-0.028 1.108,-1.03 2.723,0.068 3.841,-0.916 4.012,0.405 7.861,-0.784 11.771,-1.29 5.316,-0.687 10.597,-1.664 15.88,-2.6 4.973,-0.882 9.937,-1.828 14.89,-2.825 7.587,-1.526 15.162,-3.114 22.74,-4.685 7.601,-1.576 15.016,-3.862 22.473,-5.977 1.822,-0.517 3.564,-1.324 5.326,-2.038 2.047,-0.828 4.091,-1.561 6.366,-1.031 0.175,0.041 0.458,-0.376 0.69,-0.581 C 1.046,94.362 0.19,90.398 0.467,86.477 0.467,59.361 0.478,32.248 0.444,5.135 0.442,3.425 0.89,1.645 0,0"
                   style="fill:#8da5cb;fill-opacity:1;fill-rule:nonzero;stroke:none"
                   id="path80" />
              </g>
              <g
                 transform="translate(596.6006,806.9403)"
                 id="g86">
                <path
                   d="M 0,0 C -0.253,-0.725 -0.79,-1.476 -0.112,-2.202 0.973,-3.363 1.966,-4.7 3.267,-5.55 c 3.913,-2.555 6.892,-6.089 10.149,-9.323 7.093,-7.044 14.949,-13.287 21.688,-20.7 5.88,-4.158 10.191,-10.016 15.657,-14.579 5.993,-5.004 11.034,-10.99 16.973,-15.969 5.378,-4.508 9.934,-9.825 15.235,-14.344 4.236,-3.61 8.241,-7.425 12.171,-11.342 0.787,-0.785 1.579,-1.57 2.314,-2.403 0.858,-0.971 0.63,-1.389 -1.09,-2.152 0,0 -0.458,0.008 -0.458,0.005 -0.456,0.072 -0.889,0.22 -1.318,0.386 -0.291,0.098 -0.57,0.222 -0.846,0.352 -0.435,0.158 -0.879,0.286 -1.329,0.4 -0.314,0.073 -0.612,0.182 -0.907,0.307 -0.444,0.201 -0.88,0.419 -1.323,0.627 -0.315,0.126 -0.616,0.274 -0.917,0.427 -0.478,0.218 -0.954,0.436 -1.443,0.64 -0.367,0.114 -0.722,0.236 -1.089,0.341 -0.833,0.18 -1.677,0.198 -2.521,0.299 -12.438,3.858 -24.918,7.517 -37.662,10.23 -1.838,0.391 -3.759,0.476 -5.52,1.225 -2.434,0.871 -4.968,0.907 -7.512,1.02 -2.025,0.091 -4.153,-0.367 -6.042,0.813 1.006,0.321 2.175,-0.226 3.302,0.734 -2.042,0.726 -3.922,1.497 -5.86,2.066 -7.846,2.301 -15.676,4.664 -23.574,6.771 -11.232,2.997 -22.517,5.789 -33.78,8.668 -6.894,4.355 -11.972,10.769 -17.918,16.173 -10.525,9.565 -20.805,19.43 -31.064,29.298 -1.438,1.384 -3.2,3.055 -0.63,5.087 2.151,0.513 4.267,1.034 6.537,1.031 2.024,-0.002 4.062,0.494 6.069,0.898 6.344,1.275 12.892,1.093 19.183,2.724 3.677,-0.301 7.19,0.936 10.829,1.149 3.762,0.219 7.488,1.004 11.236,1.502 3.439,0.456 6.878,0.925 10.33,1.253 1.731,0.165 3.454,0.483 5.15,0.633 C -8.468,-0.927 -4.321,0.449 0,0"
                   style="fill:#7e98c1;fill-opacity:1;fill-rule:nonzero;stroke:none"
                   id="path84" />
              </g>
              <g
                 transform="translate(948.5771,577.9506)"
                 id="g90">
                <path
                   d="m 0,0 c -6.04,0.001 -12.091,0.207 -18.117,-0.078 -3.347,-0.158 -5.933,1.047 -8.15,3.145 -3.816,3.613 -8.251,6.398 -12.32,9.662 -12.623,10.123 -26.052,19.098 -39.597,27.903 -6.24,4.058 -12.553,8.019 -18.989,11.757 -9.323,5.413 -18.791,10.574 -28.265,15.725 -14.244,7.744 -28.92,14.605 -43.315,22.032 -0.988,0.509 -1.988,1 -2.956,1.546 -0.603,0.341 -0.769,0.968 -0.839,1.617 0.124,0.248 0.248,0.495 0.369,0.746 0.973,1.139 2.309,1.682 3.674,2.097 15.31,4.65 30.932,6.881 46.948,6.012 2.478,-0.849 5.057,-0.668 7.612,-0.702 0.982,-0.004 1.95,-0.146 2.902,-0.371 1.308,-0.41 2.65,-0.658 4.023,-0.726 0.658,-0.052 1.302,-0.176 1.935,-0.35 1.189,-0.395 2.418,-0.612 3.661,-0.753 0.403,-0.057 0.797,-0.157 1.184,-0.275 0.929,-0.33 1.883,-0.577 2.858,-0.737 0.387,-0.066 0.763,-0.171 1.134,-0.292 0.913,-0.334 1.858,-0.537 2.819,-0.693 0.397,-0.067 0.781,-0.173 1.162,-0.293 0.975,-0.329 1.985,-0.5 2.997,-0.68 0.438,-0.077 0.859,-0.196 1.281,-0.33 41.243,-14.1 70.004,-41.187 85.453,-82.121 0.157,-0.39 0.282,-0.798 0.398,-1.203 0.216,-0.763 0.392,-1.544 0.65,-2.298 C -1.346,9.991 -1.232,9.628 -1.126,9.266 -0.922,8.555 -0.725,7.84 -0.458,7.145 -0.312,6.798 -0.203,6.441 -0.111,6.078 0.086,5.153 0.243,4.221 0.558,3.321 0.69,2.942 0.773,2.556 0.828,2.16 0.863,1.319 0.779,0.525 0,0"
                   style="fill:#849dc6;fill-opacity:1;fill-rule:nonzero;stroke:none"
                   id="path88" />
              </g>
              <g
                 transform="translate(1040.2217,675.2816)"
                 id="g94">
                <path
                   d="m 0,0 c 0.003,28.938 0.006,57.877 0.01,86.816 0.301,0.433 0.608,0.437 0.922,0.013 0.008,-31.144 0.025,-62.288 0.025,-93.433 -0.001,-63.56 -0.009,-127.12 -0.023,-190.68 -0.001,-2.686 0.206,-5.378 -0.723,-8.016 -0.353,-1.001 -0.181,-2.201 -0.182,-3.312 -0.011,-10.011 -0.009,-20.021 -0.009,-30.032 0,-1.744 -0.081,-3.488 0.611,-5.166 0.234,-0.567 0.283,-1.242 0.286,-1.868 0.024,-4.265 0.013,-8.529 0.013,-12.879 -1.475,0.486 -1.262,1.847 -1.781,2.732 -0.551,0.943 -0.802,2.058 -1.202,3.092 -2.793,7.239 -5.346,14.584 -8.451,21.687 -3.493,7.991 -7.362,15.826 -11.287,23.617 -6.283,12.474 -13.585,24.327 -22.169,35.376 -3.782,4.868 -7.296,9.949 -11.186,14.727 -1.997,2.453 -4.218,4.719 -5.881,7.436 1.905,2.042 4.417,1.299 6.705,1.375 3.945,0.132 7.895,-0.018 11.829,0.068 0.438,0.047 0.88,0.142 1.288,0.309 0.361,0.198 0.726,0.409 1.058,0.664 0.124,0.169 0.267,0.319 0.391,0.485 0.587,0.985 0.573,2.112 0.772,3.198 0.063,0.525 0.179,1.021 0.327,1.523 0.321,8.635 -0.234,17.255 -0.001,25.873 0.062,2.301 -0.407,4.762 1.486,6.672 0.274,-0.378 0.817,-0.787 0.777,-1.13 -0.331,-2.956 1.355,-4.939 3.464,-6.367 3.865,-2.615 6.879,-6.091 10.128,-9.325 6.515,-6.487 13.787,-12.171 19.995,-18.978 0.316,-0.346 0.731,-0.607 1.122,-0.874 0.486,-0.331 1.453,0.059 1.494,0.64 0.099,1.419 0.184,2.841 0.184,4.263 0.012,27.791 0.012,55.581 0.012,83.372 C 0.005,-38.748 0.002,-19.374 0,0"
                   style="fill:#829cc5;fill-opacity:1;fill-rule:nonzero;stroke:none"
                   id="path92" />
              </g>
              <g
                 transform="translate(514.5537,796.4476)"
                 id="g98">
                <path
                   d="m 0,0 c -0.924,-1.72 -0.28,-3.263 1.074,-4.17 4.139,-2.774 7.137,-6.72 10.739,-10.038 6.981,-6.431 14.089,-12.73 20.612,-19.642 6.356,-4.287 10.763,-10.7 16.753,-15.392 0.302,-0.237 0.297,-0.868 0.434,-1.316 -3.859,0.809 -7.717,1.622 -11.577,2.427 -6.802,1.418 -13.6,2.846 -20.406,4.24 -3.867,0.792 -7.738,1.566 -11.621,2.272 -4.809,0.874 -9.628,1.694 -14.45,2.494 -4.669,0.773 -9.345,1.507 -14.021,2.231 -3.582,0.555 -7.2,0.919 -10.747,1.638 -3.874,0.787 -7.836,0.77 -11.712,1.63 -2.747,0.61 -5.636,0.66 -8.453,1.008 -3.122,0.387 -6.268,0.722 -9.406,1.071 -2.819,0.313 -5.726,-0.186 -8.459,0.952 -5.255,-0.417 -10.352,1.466 -15.617,1.048 -1.731,-0.138 -3.489,-0.121 -5.168,0.578 -0.568,0.237 -1.253,0.364 -1.862,0.303 -5.581,-0.549 -11.022,1.113 -16.572,1.026 -0.411,-0.007 -1.064,0.149 -1.196,0.425 -0.376,0.788 0.386,1.123 0.91,1.384 4.117,2.051 8.169,4.204 12.542,5.743 6.725,2.366 13.531,4.447 20.466,6.033 10.002,2.288 20.044,4.408 30.103,6.432 8.348,1.68 16.728,3.225 25.128,4.626 6.064,1.012 12.201,1.565 18.226,2.877 C -2.91,0.178 -1.429,-0.027 0,0"
                   style="fill:#7c94be;fill-opacity:1;fill-rule:nonzero;stroke:none"
                   id="path96" />
              </g>
              <g
                 transform="translate(717.7988,465.495)"
                 id="g102">
                <path
                   d="m 0,0 c 2.522,-4.895 6.668,-8.425 10.64,-11.971 4.1,-3.661 8.267,-7.282 12.756,-10.531 5.127,-3.712 10.477,-7.027 15.903,-10.251 -4.106,-5.861 -9.195,-10.843 -14.279,-15.811 -6.349,-6.206 -13.211,-11.815 -20.405,-17.019 -0.883,-0.639 -1.95,-1.075 -2.503,-2.112 -0.444,-0.292 -0.887,-0.583 -1.332,-0.874 0.225,1.78 -1.168,2.446 -2.288,3.271 -3.298,2.431 -6.638,4.805 -9.917,7.26 -4.548,3.405 -8.912,7.03 -12.909,11.08 -3.996,4.047 -7.995,8.091 -11.982,12.146 -0.882,0.897 -1.856,1.749 -1.999,3.124 -0.238,0.184 -0.326,0.377 -0.264,0.582 0.064,0.208 0.133,0.312 0.206,0.312 6.997,4.047 13.824,8.345 20.088,13.485 6.382,5.237 12.428,10.812 17.586,17.292 C -0.475,0.36 -0.242,0.384 0,0"
                   style="fill:#bbbbbb;fill-opacity:1;fill-rule:nonzero;stroke:none"
                   id="path100" />
              </g>
              <g
                 transform="translate(1002.1553,530.9413)"
                 id="g106">
                <path
                   d="m 0,0 c 0.166,-0.232 0.154,-0.456 -0.036,-0.67 -0.963,-0.799 -0.237,-2.111 -0.911,-2.999 l 0.04,0.057 C -1.378,-3.785 -1.672,-4.167 -1.99,-4.521 l 0.011,0.005 c -5.575,-0.983 -11.197,-0.185 -16.791,-0.454 -1.707,-0.082 -3.44,0.277 -5.117,-0.301 -1.742,-0.078 -3.484,-0.223 -5.225,-0.222 -52.766,0.018 -105.532,0.045 -158.297,0.109 -1.843,0.002 -3.826,-0.578 -5.505,0.768 1.746,0.045 3.491,0.131 5.236,0.13 52.276,-0.014 104.552,-0.038 156.827,-0.053 1.584,0 3.169,0.065 4.75,0.151 0.617,0.034 1.015,0.94 0.696,1.455 -0.166,0.269 -0.321,0.553 -0.531,0.786 -3.4,3.763 -6.778,7.547 -10.223,11.269 -4.415,4.772 -8.561,9.861 -13.414,14.143 -6.303,5.56 -11.865,11.91 -18.555,17.044 -2.255,1.731 -4.279,3.764 -6.408,5.658 6.982,0.038 13.967,0.075 20.95,0.113 0.881,1.254 0.827,2.521 0.046,3.795 l 0.008,-0.019 c -1.03,1.081 0.248,2.811 -1.074,3.81 l 0.048,-0.077 c -0.699,0.86 0.069,2.195 -0.955,2.949 l 0.033,-0.056 c -0.753,0.83 0.04,2.18 -0.984,2.919 l 0.031,-0.054 c -0.495,1.051 -0.816,2.18 0.222,3.016 1.059,0.852 2.182,0.262 3.021,-0.458 2.884,-2.473 5.919,-4.811 8.606,-7.469 13.96,-13.818 28.741,-26.768 42.738,-40.545 1.45,-1.427 2.445,-2.789 2.24,-4.918 C 0.107,5.992 0.803,2.964 0,0"
                   style="fill:#414141;fill-opacity:1;fill-rule:nonzero;stroke:none"
                   id="path104" />
              </g>
              <g
                 transform="translate(715.9727,698.0228)"
                 id="g110">
                <path
                   d="m 0,0 c 5.378,3.336 10.73,6.712 16.146,9.983 1.743,1.052 3.451,2.257 5.53,2.635 2.78,1.153 4.178,-1.164 5.571,-2.597 7.524,-7.742 16.073,-14.402 23.425,-22.311 2.825,-3.039 6.433,-5.186 9.167,-8.29 1.619,-1.837 3.244,-3.846 0.12,-5.859 l 0.098,-0.325 c -0.969,-0.253 -1.939,-0.507 -2.908,-0.76 -15.883,6.898 -31.718,13.903 -47.381,21.292 -0.723,0.341 -1.428,0.65 -2.232,0.685 -2.501,1.608 -5.003,3.215 -7.505,4.823 -0.404,0.144 -0.543,0.298 -0.418,0.466 C -0.26,-0.086 -0.132,0 0,0"
                   style="fill:#3e3e3e;fill-opacity:1;fill-rule:nonzero;stroke:none"
                   id="path108" />
              </g>
              <g
                 transform="translate(723.5088,692.476)"
                 id="g114">
                <path
                   d="m 0,0 c 0.396,0.611 0.97,0.824 1.619,0.542 5.232,-2.271 10.468,-4.535 15.676,-6.859 9.117,-4.068 18.232,-8.141 27.308,-12.3 1.82,-0.834 4.003,-1.258 5.009,-3.361 -5.226,-2.433 -10.444,-4.886 -15.691,-7.275 -0.677,-0.309 -1.506,-0.283 -2.264,-0.414 C 23.379,-19.887 14.201,-11.046 4.02,-3.255 2.651,-2.208 1.339,-1.087 0,0"
                   style="fill:#010101;fill-opacity:1;fill-rule:nonzero;stroke:none"
                   id="path112" />
              </g>
              <g
                 transform="translate(978.2686,525.6698)"
                 id="g118">
                <path
                   d="M 0,0 C 1.016,1.032 2.326,0.766 3.554,0.769 9.672,0.779 15.79,0.763 21.907,0.756 21.095,-0.262 19.937,-0.07 18.858,-0.075 14.451,-0.094 10.042,-0.065 5.635,-0.091 4.064,-0.1 2.495,-0.213 0.926,-0.278 Z"
                   style="fill:#434444;fill-opacity:1;fill-rule:nonzero;stroke:none"
                   id="path116" />
              </g>
              <g
                 transform="translate(1041.1533,762.1107)"
                 id="g122">
                <path
                   d="M 0,0 C -0.308,-0.005 -0.615,-0.01 -0.922,-0.013 L -0.934,11.421 C -0.069,10.793 0.021,9.871 0.019,8.913 0.011,5.942 0.006,2.971 0,0"
                   style="fill:#88a0ca;fill-opacity:1;fill-rule:nonzero;stroke:none"
                   id="path120" />
              </g>
              <g
                 transform="translate(784.5615,812.6781)"
                 id="g126">
                <path
                   d="m 0,0 c -2.663,-0.001 -5.325,0 -7.988,-0.004 -0.962,-0.002 -1.88,0.1 -2.521,0.945 2.658,-0.004 5.318,-0.01 7.977,-0.012 C -1.573,0.928 -0.655,0.826 0,0"
                   style="fill:#849ec7;fill-opacity:1;fill-rule:nonzero;stroke:none"
                   id="path124" />
              </g>
              <g
                 transform="translate(934.3418,795.5023)"
                 id="g130">
                <path
                   d="M 0,0 C -1.239,0.002 -2.479,0.002 -3.718,0.007 -4.532,0.01 -5.229,0.274 -5.735,0.941 -4.499,0.935 -3.263,0.931 -2.026,0.92 -1.217,0.913 -0.52,0.651 0,0"
                   style="fill:#88a0ca;fill-opacity:1;fill-rule:nonzero;stroke:none"
                   id="path128" />
              </g>
              <g
                 transform="translate(611.8623,808.8422)"
                 id="g134">
                <path
                   d="m 0,0 c -0.508,-0.665 -1.204,-0.927 -2.016,-0.93 -1.238,-0.005 -2.475,-0.006 -3.713,-0.008 0.511,0.66 1.207,0.924 2.019,0.929 C -2.474,-0.003 -1.237,-0.003 0,0"
                   style="fill:#7e98c1;fill-opacity:1;fill-rule:nonzero;stroke:none"
                   id="path132" />
              </g>
              <g
                 transform="translate(927.665,796.4569)"
                 id="g138">
                <path
                   d="M 0,0 C -1.239,0.002 -2.479,0.002 -3.718,0.006 -4.532,0.009 -5.228,0.272 -5.736,0.939 -4.5,0.932 -3.264,0.929 -2.026,0.918 -1.218,0.912 -0.52,0.651 0,0"
                   style="fill:#88a0ca;fill-opacity:1;fill-rule:nonzero;stroke:none"
                   id="path136" />
              </g>
              <g
                 transform="translate(603.2759,807.8876)"
                 id="g142">
                <path
                   d="m 0,0 c -0.508,-0.664 -1.203,-0.926 -2.015,-0.93 -1.237,-0.005 -2.474,-0.007 -3.711,-0.009 0.51,0.662 1.206,0.924 2.017,0.928 C -2.473,-0.004 -1.236,-0.003 0,0"
                   style="fill:#7e98c1;fill-opacity:1;fill-rule:nonzero;stroke:none"
                   id="path140" />
              </g>
              <g
                 transform="translate(920.041,797.4154)"
                 id="g146">
                <path
                   d="M 0,0 C -1.618,0.197 -3.432,-0.62 -4.788,0.927 -3.166,0.752 -1.365,1.504 0,0"
                   style="fill:#88a0ca;fill-opacity:1;fill-rule:nonzero;stroke:none"
                   id="path144" />
              </g>
              <g
                 transform="translate(940.084,794.5585)"
                 id="g150">
                <path
                   d="M 0,0 C -1.327,0.106 -2.815,-0.456 -3.841,0.917 -2.509,0.827 -1.035,1.332 0,0"
                   style="fill:#88a0ca;fill-opacity:1;fill-rule:nonzero;stroke:none"
                   id="path148" />
              </g>
              <g
                 transform="translate(948.6152,580.8168)"
                 id="g154">
                <path
                   d="m 0,0 c 1.315,-1.844 1.313,-2.05 -0.046,-3.795 0.142,0.308 0.145,0.618 0.008,0.929 C -0.025,-1.911 -0.013,-0.955 0,0"
                   style="fill:#434444;fill-opacity:1;fill-rule:nonzero;stroke:none"
                   id="path152" />
              </g>
              <g
                 transform="translate(679.4263,434.701)"
                 id="g158">
                <path
                   d="m 0,0 c 0.045,-0.297 0.065,-0.595 0.059,-0.895 -1.702,0.291 -3.079,-0.564 -4.496,-1.271 -10.865,-5.419 -22.264,-9.254 -34.205,-11.436 -4.055,-0.741 -8.134,-1.327 -12.263,-1.583 -5.228,-0.323 -10.437,-0.97 -15.689,-0.792 -29.273,0.998 -55.775,9.876 -79.017,27.914 -15.155,11.76 -27.256,26.138 -36.053,43.187 -6.446,12.492 -10.922,25.676 -12.942,39.653 -1,6.925 -1.808,13.855 -1.667,20.859 0.337,16.832 3.483,33.094 9.988,48.668 5.747,13.759 13.616,26.146 23.591,37.248 15.539,17.295 34.433,29.442 56.334,36.956 9.019,3.094 18.325,4.99 27.832,6.103 7.939,0.929 15.872,1.068 23.782,0.554 12.074,-0.786 23.889,-3.152 35.318,-7.253 5.238,-1.879 10.372,-3.983 15.325,-6.53 1.245,-0.64 2.576,-1.112 3.86,-1.657 -1.425,-0.799 -2.358,-2.087 -3.335,-3.331 -18.276,-23.259 -30.395,-49.353 -36.057,-78.409 -0.545,-2.797 -0.848,-5.641 -1.263,-8.463 -1.797,-1.711 -4.079,-1.577 -6.289,-1.581 -18.575,-0.03 -37.15,-0.02 -55.725,-0.015 -4.295,0.001 -8.501,1.188 -12.814,0.866 -4.982,-0.374 -6.487,-1.772 -6.548,-6.797 -0.141,-11.431 -0.089,-22.863 -0.028,-34.295 0.031,-5.704 0.594,-6.3 6.291,-6.318 22.386,-0.072 44.771,0 67.157,-0.059 2.634,-0.007 5.449,0.575 7.75,-1.421 C -37.76,67.6 -30.849,46.503 -19.767,26.818 -15.015,18.378 -9.63,10.362 -3.602,2.782 -2.643,1.577 -1.869,0.06 0,0"
                   style="fill:#7089b2;fill-opacity:1;fill-rule:nonzero;stroke:none"
                   id="path156" />
              </g>
              <g
                 transform="translate(715.9727,698.0228)"
                 id="g162">
                <path
                   d="m 0,0 c 0.036,-0.24 0.046,-0.481 0.031,-0.724 -3.056,-0.355 -5.467,1.52 -8.052,2.553 -13.384,5.344 -26.804,10.582 -40.427,15.288 -9.133,3.155 -18.272,6.294 -27.406,9.445 -0.88,0.303 -1.911,0.313 -2.488,1.232 5.6,0.121 10.957,-1.393 16.373,-2.471 8.559,-1.705 16.819,-4.471 25.071,-7.255 1.039,-0.351 2.128,-0.553 3.194,-0.824 0.643,-0.425 1.526,-0.298 2.089,-0.908 l -0.017,0.011 c 0.529,-0.542 1.397,-0.355 1.929,-0.891 0.232,-0.12 0.475,-0.158 0.732,-0.113 0.449,-0.164 0.795,-0.483 1.161,-0.771 0.266,-0.129 0.545,-0.184 0.839,-0.166 0.602,-0.476 1.492,-0.324 2.034,-0.93 l -0.016,0.01 c 0.536,-0.534 1.4,-0.385 1.934,-0.925 l 0.011,-0.005 c 2.73,-1.496 5.428,-3.056 8.198,-4.473 4.609,-2.358 9.068,-4.97 13.462,-7.7 C -0.967,0.146 -0.452,0.123 0,0"
                   style="fill:#e7e7e7;fill-opacity:1;fill-rule:nonzero;stroke:none"
                   id="path160" />
              </g>
              <g
                 transform="translate(1002.1553,530.9413)"
                 id="g166">
                <path
                   d="m 0,0 c -0.033,3.01 -0.086,6.02 -0.089,9.028 -0.002,1.175 -0.336,2.05 -1.297,2.867 -1.926,1.637 -3.732,3.422 -5.516,5.218 -7.356,7.408 -15.552,13.935 -22.617,21.645 -5.865,4.138 -10.289,9.816 -15.582,14.559 -2.935,2.63 -6.089,5.017 -8.818,7.886 -0.421,0.442 -0.95,0.95 -1.653,0.651 -0.9,-0.384 -0.735,-1.278 -0.825,-2.033 -0.019,-0.157 -0.024,-0.316 -0.035,-0.474 -1.127,1.032 -1.23,2.549 -1.752,3.849 -15.279,38.048 -42.294,63.839 -80.873,77.591 -1.181,0.421 -2.319,0.965 -3.477,1.452 -2.046,4.49 -5.939,7.401 -9.493,10.441 -7.851,6.713 -15.02,14.14 -22.558,21.171 -6.957,6.489 -14.436,12.484 -20.719,19.642 -2.883,3.286 -7.073,2.298 -10.16,4.396 0.433,0.186 0.853,0.493 1.299,0.538 12.471,1.272 24.936,1.74 37.469,0.611 7.575,-0.683 15.038,-2.002 22.55,-3.05 2.603,-0.678 5.207,-1.36 7.812,-2.033 35.66,-9.227 66.054,-27.305 90.832,-54.566 C -23.35,115.017 -9.037,86.549 -2.248,54.327 -1.203,49.37 -0.347,44.363 0.073,39.295 0.204,37.724 0.612,36.176 0.895,34.617 0.953,31.604 0.963,28.589 1.08,25.578 1.364,18.269 1.103,10.97 0.76,3.671 0.701,2.415 0.796,1.11 0,0"
                   style="fill:#434444;fill-opacity:1;fill-rule:nonzero;stroke:none"
                   id="path164" />
              </g>
              <g
                 transform="translate(638.3223,524.6034)"
                 id="g170">
                <path
                   d="m 0,0 c -25.715,-0.058 -51.429,-0.122 -77.144,-0.167 -5.459,-0.01 -5.714,0.244 -5.723,5.55 -0.021,12.541 0.167,25.087 -0.097,37.622 -0.121,5.768 2.776,7.494 7.477,7.243 4.749,-0.254 9.509,-0.394 14.265,-0.413 18.572,-0.071 37.145,-0.072 55.717,-0.109 1.904,-0.004 3.808,-0.07 5.712,-0.107 C -0.212,45.862 -0.698,42.109 -1.037,38.344 -2.091,26.629 -1.877,14.941 -0.164,3.29 -0.005,2.209 -0.05,1.098 0,0"
                   style="fill:#ffffff;fill-opacity:1;fill-rule:nonzero;stroke:none"
                   id="path168" />
              </g>
              <g
                 transform="translate(717.7988,465.495)"
                 id="g174">
                <path
                   d="m 0,0 -0.349,-0.052 c 0,0 -0.351,0.031 -0.35,0.033 -0.37,1.265 -1.288,2.172 -2.063,3.173 -12.349,15.963 -20.496,33.865 -24.684,53.586 -0.162,0.762 -0.106,1.572 -0.152,2.359 13.67,0.07 27.34,0.118 41.009,0.227 3.651,0.029 7.3,0.257 10.95,0.374 0.632,0.021 1.276,-0.008 1.901,-0.098 0.917,-0.135 1.446,-0.733 1.282,-1.644 C 27.18,55.931 26.791,53.9 26.271,51.908 21.68,34.299 13.787,18.311 2.612,3.946 1.641,2.697 0.485,1.571 0,0"
                   style="fill:#7089b2;fill-opacity:1;fill-rule:nonzero;stroke:none"
                   id="path172" />
              </g>
              <g
                 transform="translate(796.6914,728.8304)"
                 id="g178">
                <path
                   d="m 0,0 c 0.791,-0.041 1.581,-0.107 2.372,-0.12 4.693,-0.074 4.92,0.146 7.969,-3.057 5.465,-5.742 11.81,-10.514 17.31,-16.207 7.367,-7.624 15.768,-14.175 22.939,-22.007 4.345,-2.972 7.803,-6.91 11.512,-10.573 0.56,-0.554 1.125,-1.129 1.555,-1.781 0.586,-0.887 -0.015,-1.446 -0.726,-1.905 -10e-4,0 -0.368,-0.002 -0.368,-0.002 l -0.3,0.21 c -0.824,0.873 -2.127,0.131 -2.986,0.886 l -0.448,-0.026 -0.407,0.189 c -0.838,0.722 -2.075,0.03 -2.895,0.816 -0.307,0.05 -0.616,0.098 -0.923,0.148 -0.888,0.683 -2.107,0.079 -2.993,0.769 l -0.423,-0.05 -0.387,0.178 c -1.199,0.915 -2.777,-0.019 -3.991,0.817 -0.583,0.067 -1.166,0.134 -1.75,0.201 -1.277,0.752 -2.813,0.017 -4.099,0.717 -0.858,0.073 -1.718,0.146 -2.576,0.219 -2.559,0.998 -5.328,-0.224 -7.89,0.748 -0.784,-0.045 -1.57,-0.145 -2.353,-0.127 -15.757,0.347 -31.158,-1.783 -46.179,-6.593 -0.891,-0.285 -1.815,-0.467 -2.723,-0.697 1.156,1.66 1.23,3.192 -0.419,4.627 -1.549,1.349 -2.776,3.036 -4.649,4.055 -0.95,0.517 -1.763,1.356 -2.511,2.167 -7.979,8.64 -17.321,15.858 -25.422,24.377 -1.484,1.562 -3.054,3.202 -5.281,3.832 5.014,3.332 10.599,5.477 16.169,7.606 4.553,1.74 9.222,3.174 13.831,4.767 0.577,0.2 1.104,0.545 1.653,0.823 0.319,0.063 0.636,0.127 0.953,0.191 0.681,0.448 1.507,0.451 2.241,0.739 0.528,0.087 1.056,0.175 1.585,0.263 0.675,0.385 1.476,0.383 2.173,0.706 0.548,0.084 1.097,0.168 1.646,0.251 0.872,0.614 2.08,-0.015 2.903,0.783 0.624,0.068 1.247,0.137 1.871,0.205 0.621,0.329 1.297,0.283 1.966,0.287 1.307,0.056 2.7,-0.3 3.787,0.8 0.659,0.179 1.331,0.153 2.002,0.155 1.528,0.194 3.133,-0.439 4.596,0.436 C -1.11,-0.118 -0.556,-0.059 0,0"
                   style="fill:#414141;fill-opacity:1;fill-rule:nonzero;stroke:none"
                   id="path176" />
              </g>
              <g
                 transform="translate(795.0254,728.6537)"
                 id="g182">
                <path
                   d="m 0,0 c -1.463,-1.506 -3.289,-0.725 -4.98,-0.791 -0.108,0.399 0.024,0.661 0.436,0.763 C -3.029,-0.019 -1.515,-0.009 0,0"
                   style="fill:#434444;fill-opacity:1;fill-rule:nonzero;stroke:none"
                   id="path180" />
              </g>
              <g
                 transform="translate(788.3652,727.6327)"
                 id="g186">
                <path
                   d="m 0,0 c -1.107,-1.238 -2.565,-0.74 -3.913,-0.792 -0.21,0.467 -0.078,0.738 0.447,0.784 0.848,0.096 1.696,0.192 2.544,0.288 C -0.498,0.57 -0.19,0.477 0,0"
                   style="fill:#434444;fill-opacity:1;fill-rule:nonzero;stroke:none"
                   id="path184" />
              </g>
              <g
                 transform="translate(780.8037,726.7709)"
                 id="g190">
                <path
                   d="M 0,0 C -0.837,-0.748 -1.828,-0.921 -2.903,-0.783 -2.136,0.221 -1.042,0.012 0,0"
                   style="fill:#819bc4;fill-opacity:1;fill-rule:nonzero;stroke:none"
                   id="path188" />
              </g>
              <g
                 transform="translate(788.3652,727.6327)"
                 id="g194">
                <path
                   d="M 0,0 C -0.308,0.093 -0.614,0.187 -0.922,0.28 -0.091,1.291 1.032,1.056 2.115,0.993 1.968,0.74 1.822,0.486 1.681,0.229 1.12,0.153 0.56,0.077 0,0"
                   style="fill:#819bc4;fill-opacity:1;fill-rule:nonzero;stroke:none"
                   id="path192" />
              </g>
              <g
                 transform="translate(776.2539,725.7367)"
                 id="g198">
                <path
                   d="M 0,0 C -0.581,-0.675 -1.333,-0.826 -2.173,-0.707 -1.625,0.073 -0.833,0.098 0,0"
                   style="fill:#819bc4;fill-opacity:1;fill-rule:nonzero;stroke:none"
                   id="path196" />
              </g>
              <g
                 transform="translate(784.8994,727.6244)"
                 id="g202">
                <path
                   d="M 0,0 C -0.141,-0.266 -0.289,-0.527 -0.447,-0.783 -1.04,-0.738 -1.632,-0.694 -2.225,-0.649 -1.644,0.118 -0.839,0.115 0,0"
                   style="fill:#819bc4;fill-opacity:1;fill-rule:nonzero;stroke:none"
                   id="path200" />
              </g>
              <g
                 transform="translate(772.4961,724.767)"
                 id="g206">
                <path
                   d="M 0,0 C -0.596,-0.705 -1.378,-0.844 -2.24,-0.739 -1.685,0.087 -0.862,0.105 0,0"
                   style="fill:#819bc4;fill-opacity:1;fill-rule:nonzero;stroke:none"
                   id="path204" />
              </g>
              <g
                 transform="translate(692.9536,710.5839)"
                 id="g210">
                <path
                   d="M 0,0 C -0.792,0 -1.487,0.202 -1.934,0.925 -1.134,0.94 -0.421,0.776 0,0"
                   style="fill:#819bc4;fill-opacity:1;fill-rule:nonzero;stroke:none"
                   id="path208" />
              </g>
              <g
                 transform="translate(691.0356,711.4984)"
                 id="g214">
                <path
                   d="M 0,0 C -0.816,0.007 -1.534,0.229 -2.033,0.931 -1.191,0.98 -0.422,0.87 0,0"
                   style="fill:#819bc4;fill-opacity:1;fill-rule:nonzero;stroke:none"
                   id="path212" />
              </g>
              <g
                 transform="translate(686.27,713.4784)"
                 id="g218">
                <path
                   d="M 0,0 C -0.79,-0.021 -1.479,0.179 -1.93,0.892 -1.141,0.91 -0.431,0.756 0,0"
                   style="fill:#819bc4;fill-opacity:1;fill-rule:nonzero;stroke:none"
                   id="path216" />
              </g>
              <g
                 transform="translate(684.3574,714.3588)"
                 id="g222">
                <path
                   d="M 0,0 C -0.827,0 -1.562,0.213 -2.087,0.908 -1.229,0.982 -0.442,0.887 0,0"
                   style="fill:#819bc4;fill-opacity:1;fill-rule:nonzero;stroke:none"
                   id="path220" />
              </g>
              <g
                 transform="translate(688.1631,712.5946)"
                 id="g226">
                <path
                   d="M 0,0 C -0.386,0.257 -0.772,0.515 -1.16,0.771 -0.774,0.514 -0.387,0.257 0,0"
                   style="fill:#819bc4;fill-opacity:1;fill-rule:nonzero;stroke:none"
                   id="path224" />
              </g>
              <g
                 transform="translate(827.1865,679.0009)"
                 id="g230">
                <path
                   d="M 0,0 C 1.959,0.029 3.917,0.063 5.875,0.084 6.658,0.092 7.351,-0.15 7.89,-0.748 5.233,-0.776 2.552,-1.071 0,0"
                   style="fill:#434444;fill-opacity:1;fill-rule:nonzero;stroke:none"
                   id="path228" />
              </g>
              <g
                 transform="translate(837.6523,678.0331)"
                 id="g234">
                <path
                   d="M 0,0 C 1.41,0.009 2.914,0.557 4.099,-0.716 2.672,-0.826 1.249,-0.913 0,0"
                   style="fill:#434444;fill-opacity:1;fill-rule:nonzero;stroke:none"
                   id="path232" />
              </g>
              <g
                 transform="translate(843.501,677.1151)"
                 id="g238">
                <path
                   d="M 0,0 C 1.38,-0.03 2.879,0.523 3.991,-0.817 2.591,-0.886 1.192,-0.945 0,0"
                   style="fill:#434444;fill-opacity:1;fill-rule:nonzero;stroke:none"
                   id="path236" />
              </g>
              <g
                 transform="translate(947.5488,584.6068)"
                 id="g242">
                <path
                   d="M 0,0 C 1.596,-0.92 0.954,-2.472 1.074,-3.809 0.046,-2.729 0.05,-1.356 0,0"
                   style="fill:#434444;fill-opacity:1;fill-rule:nonzero;stroke:none"
                   id="path240" />
              </g>
              <g
                 transform="translate(848.3027,676.1708)"
                 id="g246">
                <path
                   d="M 0,0 C 1.075,0.044 2.196,0.271 2.992,-0.77 1.898,-0.887 0.855,-0.808 0,0"
                   style="fill:#434444;fill-opacity:1;fill-rule:nonzero;stroke:none"
                   id="path244" />
              </g>
              <g
                 transform="translate(852.2187,675.2538)"
                 id="g250">
                <path
                   d="M 0,0 C 1.044,0.009 2.144,0.214 2.895,-0.816 1.819,-0.935 0.817,-0.796 0,0"
                   style="fill:#434444;fill-opacity:1;fill-rule:nonzero;stroke:none"
                   id="path248" />
              </g>
              <g
                 transform="translate(855.9687,674.2748)"
                 id="g254">
                <path
                   d="M 0,0 C 1.093,0.033 2.238,0.245 2.985,-0.887 1.887,-0.938 0.828,-0.859 0,0"
                   style="fill:#434444;fill-opacity:1;fill-rule:nonzero;stroke:none"
                   id="path252" />
              </g>
              <g
                 transform="translate(945.6914,590.3422)"
                 id="g258">
                <path
                   d="M 0,0 C 1.236,-0.667 1.021,-1.823 0.983,-2.919 0.069,-2.144 0.016,-1.078 0,0"
                   style="fill:#434444;fill-opacity:1;fill-rule:nonzero;stroke:none"
                   id="path256" />
              </g>
              <g
                 transform="translate(946.6426,587.4794)"
                 id="g262">
                <path
                   d="M 0,0 C 1.253,-0.68 1.022,-1.84 0.955,-2.949 0.008,-2.17 0.011,-1.083 0,0"
                   style="fill:#434444;fill-opacity:1;fill-rule:nonzero;stroke:none"
                   id="path260" />
              </g>
              <g
                 transform="translate(1001.208,527.2723)"
                 id="g266">
                <path
                   d="M 0,0 C -0.08,1.117 -0.287,2.271 0.911,2.999 1.035,1.87 1.197,0.729 0,0"
                   style="fill:#434444;fill-opacity:1;fill-rule:nonzero;stroke:none"
                   id="path264" />
              </g>
              <g
                 transform="translate(1000.165,526.4198)"
                 id="g270">
                <path
                   d="M 0,0 C 0.36,0.304 0.721,0.606 1.082,0.909 0.954,0.329 0.578,0.045 0,0"
                   style="fill:#434444;fill-opacity:1;fill-rule:nonzero;stroke:none"
                   id="path268" />
              </g>
            </g>
          </g>
        </g>
      </g>
    </g>
  </g>
</svg>
